HIERARCHY
ROOT Hips
{
  OFFSET 0.000000 0.000000 0.000000
  CHANNELS 6 Xposition Yposition Zposition Zrotation Xrotation Yrotation
  JOINT LeftUpLeg
  {
    OFFSET 0.068447 -0.100487 -0.014419
    CHANNELS 3 Zrotation Xrotation Yrotation
    JOINT LeftLeg
    {
      OFFSET 0.057942 -0.343846 0.045653
      CHANNELS 3 Zrotation Xrotation Yrotation
      JOINT LeftFoot
      {
        OFFSET -0.033280 -0.384447 -0.101058
        CHANNELS 3 Zrotation Xrotation Yrotation
        JOINT LeftToeBase
        {
          OFFSET 0.054402 -0.058270 0.117509
          CHANNELS 3 Zrotation Xrotation Yrotation
          End Site
          {
            OFFSET 0 0 0.1
          }
        }
      }
    }
  }
  JOINT RightUpLeg
  {
    OFFSET -0.068710 -0.124909 -0.012737
    CHANNELS 3 Zrotation Xrotation Yrotation
    JOINT RightLeg
    {
      OFFSET -0.040229 -0.320579 0.053287
      CHANNELS 3 Zrotation Xrotation Yrotation
      JOINT RightFoot
      {
        OFFSET 0.009173 -0.394141 -0.126002
        CHANNELS 3 Zrotation Xrotation Yrotation
        JOINT RightToeBase
        {
          OFFSET -0.025806 -0.055437 0.114259
          CHANNELS 3 Zrotation Xrotation Yrotation
          End Site
          {
            OFFSET 0 0 0.1
          }
        }
      }
    }
  }
  JOINT Spine
  {
    OFFSET -0.002107 0.079915 -0.030386
    CHANNELS 3 Zrotation Xrotation Yrotation
    JOINT Spine1
    {
      OFFSET 0.004513 0.139374 0.043408
      CHANNELS 3 Zrotation Xrotation Yrotation
      JOINT Spine2
      {
        OFFSET 0.005006 0.077783 0.017139
        CHANNELS 3 Zrotation Xrotation Yrotation
        JOINT Neck
        {
          OFFSET 0.001865 0.178866 0.004059
          CHANNELS 3 Zrotation Xrotation Yrotation
          JOINT RightArm
          {
            OFFSET 0.011677 0.048123 0.070884
            CHANNELS 3 Zrotation Xrotation Yrotation
            End Site
            {
              OFFSET 0 0 0.1
            }
          }
        }
        JOINT RightShoulder
        {
          OFFSET 0.071709 0.095788 -0.000080
          CHANNELS 3 Zrotation Xrotation Yrotation
          JOINT LeftArm
          {
            OFFSET 0.112659 0.000601 -0.022199
            CHANNELS 3 Zrotation Xrotation Yrotation
            JOINT LeftForeArm
            {
              OFFSET 0.079251 -0.220407 -0.013016
              CHANNELS 3 Zrotation Xrotation Yrotation
              JOINT LeftHand
              {
                OFFSET -0.013375 -0.154805 0.066785
                CHANNELS 3 Zrotation Xrotation Yrotation
                End Site
                {
                  OFFSET 0 0 0.1
                }
              }
            }
          }
        }
        JOINT LeftShoulder
        {
          OFFSET -0.074370 0.108902 0.007181
          CHANNELS 3 Zrotation Xrotation Yrotation
          JOINT RightForeArm
          {
            OFFSET -0.106973 0.004408 -0.005743
            CHANNELS 3 Zrotation Xrotation Yrotation
            JOINT RightHand
            {
              OFFSET -0.087050 -0.219836 -0.029902
              CHANNELS 3 Zrotation Xrotation Yrotation
              JOINT LeftHandEnd
              {
                OFFSET 0.030567 -0.178379 0.111727
                CHANNELS 3 Zrotation Xrotation Yrotation
                End Site
                {
                  OFFSET 0 0 0.1
                }
              }
            }
          }
        }
      }
    }
  }
}
MOTION
Frames: 13
Frame Time: 0.05000000
0.000000 0.940117 0.000000 -0.000000 0.000000 0.000000 -55.317020 -3.554465 6.776451 64.038549 -12.045367 -5.587305 -14.900715 22.048843 1.995771 -0.323194 9.556601 24.076321 60.916655 -3.007765 -5.112455 -67.271150 -12.953543 4.225980 8.779374 27.071227 -1.101387 1.374306 7.613495 -12.044944 1.509994 -20.811827 0.277312 -3.864663 38.079023 1.448245 -1.815905 -4.871721 -0.427863 3.064857 -11.105155 0.274387 3.495998 -35.115001 9.441457 53.180759 0.019239 0.038435 37.128419 11.108498 -11.225637 -69.896878 -11.107994 -7.226949 -25.086556 -26.377396 -1.938234 -55.581079 -1.643557 3.117976 -36.610090 6.250943 1.676359 70.504747 3.171988 3.218949 33.126292 -38.521627 6.040244
0.000080 0.940237 0.008544 -0.000000 0.000000 -8.623873 -54.702158 -10.812542 12.112216 64.423640 -11.796823 -5.896728 -14.782822 21.929582 1.825881 -0.900487 9.617738 24.316236 61.082364 4.717973 -0.635935 -67.605590 -12.862822 3.913208 9.214080 27.239857 -1.237112 1.075022 7.627616 -12.159781 4.977731 -20.837068 9.539678 -3.439125 38.381543 1.211246 -2.037344 -4.628590 -0.439579 2.801171 -11.793646 0.241007 3.473041 -34.627470 9.295688 52.664987 7.096640 5.658550 35.794045 12.638178 -13.027620 -73.069300 -10.289375 -9.599229 -12.722126 -12.024843 -0.437144 -55.544966 -8.559533 7.551641 -33.914538 7.343575 3.231236 72.012251 5.464985 4.794344 21.616333 -25.094187 3.061879
0.017513 0.954547 0.002215 -0.000000 0.000000 -8.819977 -55.460308 -11.064561 12.059468 64.817492 -11.375121 -5.909031 -14.691065 20.824468 1.785054 -0.938755 11.191411 25.278843 60.603166 4.890009 -0.462030 -66.308853 -12.453926 4.033453 7.779142 26.694172 -0.951934 1.187818 9.282054 -9.916362 4.757852 -18.572112 9.598352 -3.911092 37.430807 1.330392 -2.241450 -6.145632 -0.567699 2.840090 -9.704622 0.210685 3.579057 -36.273488 8.059161 53.027733 7.139675 5.435866 37.985749 6.344050 -6.713327 -62.555803 -11.416380 -2.065520 -48.283895 -49.970424 -8.184106 -54.448868 -9.487393 9.505559 -41.744210 2.728468 -3.885440 65.170105 2.457882 -0.902862 56.636131 -55.763029 13.260506
0.025902 0.947045 0.015215 -0.000000 0.000000 -9.023489 -54.934842 -11.227572 12.391012 64.348913 -12.123944 -5.994060 -15.292636 21.497075 2.029508 -0.279189 10.001324 25.334170 60.812084 5.093437 -0.354887 -66.876684 -12.845922 3.929904 7.890000 27.153053 -0.931306 1.411853 8.094268 -10.191857 5.249433 -19.215711 9.912709 -4.761536 37.290575 1.667772 -2.073896 -5.217037 -0.506492 3.533390 -10.601550 0.317442 3.732976 -35.492747 9.950899 53.262661 7.479015 5.828865 37.605713 8.986819 -9.854251 -67.373193 -12.877597 -4.958487 -37.129185 -40.963892 -4.950215 -54.861189 -9.507600 9.181998 -38.827861 3.864960 -2.096924 68.600759 3.325060 0.522072 47.264075 -47.474444 10.666161
0.023208 0.942375 0.038280 -0.000000 0.000000 -9.234359 -54.464092 -11.613544 13.121660 63.963734 -12.758191 -6.468409 -15.383152 22.208556 2.099473 -0.315249 9.456648 25.252886 61.085868 5.384417 -0.121615 -67.555905 -12.734617 3.717209 8.316511 27.649396 -0.986478 1.480865 7.296874 -10.805635 5.743429 -20.393529 10.268268 -5.253629 37.378247 1.898435 -2.035731 -3.464157 -0.423018 4.002276 -12.055487 0.408768 3.976564 -35.029221 11.513052 53.162689 7.848774 6.379265 36.312700 13.469717 -14.718708 -73.963001 -12.013937 -10.645588 -15.044894 -14.288183 -0.785017 -55.426336 -9.448452 8.646564 -34.158366 6.648911 1.430890 73.782397 6.790457 3.760690 24.182142 -25.987961 4.108523
0.018755 0.948173 0.045966 -0.000000 0.000000 -9.452515 -55.103455 -11.803161 12.961321 64.581051 -11.676936 -6.360324 -15.177430 20.625114 1.874516 -0.577492 10.799628 25.952278 60.416994 5.811505 0.512614 -66.450908 -12.000361 3.398910 7.418984 26.696740 -0.800123 1.490562 8.545684 -9.409976 5.569219 -19.196253 10.395012 -5.453453 37.960319 1.971597 -1.732591 -6.049180 -0.496294 3.229297 -9.938047 0.253261 4.024231 -35.628260 9.852808 52.854344 8.060239 6.684687 38.776717 9.007760 -10.838265 -64.398525 -13.446960 -4.651002 -39.623676 -46.057905 -5.356481 -54.600823 -10.327408 10.409155 -40.475095 4.007006 -3.373592 66.282548 2.614694 -0.299188 50.404776 -52.106663 10.652316
0.018127 0.948126 0.050826 -0.000000 0.000000 -9.677882 -54.764769 -12.206513 13.650435 64.318943 -12.711286 -6.771982 -15.622376 21.772172 2.102013 -0.356025 10.125953 26.047833 60.921726 5.962651 0.443279 -67.121942 -12.425396 3.456749 7.608475 27.535738 -0.840335 1.571708 8.191980 -9.568638 5.840636 -19.513255 10.683028 -5.523360 36.869450 1.952788 -2.031686 -3.903772 -0.450017 3.854740 -11.474520 0.360705 4.333386 -35.625623 11.636524 52.955219 8.415543 7.126551 36.873782 12.160583 -14.183950 -70.689667 -12.408884 -9.112554 -23.511959 -24.680879 -2.067932 -55.007659 -10.210465 9.795457 -36.785310 5.169745 -1.205830 71.854376 5.884479 1.783176 33.812549 -35.710944 6.223451
0.015252 0.945491 0.061379 -0.000000 0.000000 -9.910362 -54.580375 -12.436770 13.940184 64.548200 -12.643240 -6.847141 -16.187732 21.529005 2.136240 -0.452662 10.488927 27.000387 60.571762 6.374115 0.982147 -66.656740 -12.346255 3.117076 7.596607 27.757854 -0.898246 1.352165 7.686796 -9.488909 6.078709 -19.189686 10.938873 -5.383838 36.763988 1.806569 -3.218943 -2.952016 -0.614592 5.101812 -12.260872 0.576914 4.079342 -35.634345 11.896057 53.400848 8.922106 7.724334 35.637720 10.124558 -12.788704 -68.971766 -13.569661 -7.268303 -32.545551 -33.432520 -4.278723 -54.948589 -10.392743 9.930113 -36.679923 2.330286 -4.161325 69.872251 5.501429 -0.601644 43.553812 -42.319402 9.228574
0.015396 0.938519 0.072556 -0.000000 0.000000 -10.149832 -54.173516 -12.610336 14.232258 64.004299 -13.200007 -6.923732 -16.403450 21.967438 2.307429 0.297726 8.965335 26.487769 60.921194 6.578473 1.012646 -67.511558 -12.627869 3.067799 7.549302 27.838325 -0.774555 1.809094 6.834764 -9.574513 6.713618 -20.113100 11.341778 -6.765041 37.066491 2.426670 -1.988797 -3.361954 -0.426979 4.788532 -12.265855 0.508975 4.416719 -34.538755 13.513750 53.197481 9.167165 8.042339 37.019681 14.534712 -17.689408 -74.632337 -14.397931 -12.413497 -14.119289 -13.651627 -0.698409 -55.431157 -10.610172 9.897090 -33.939293 5.892277 -0.466860 73.890412 6.954846 2.492440 25.479809 -25.851556 4.131038
0.002482 0.945003 0.088815 -0.000000 0.000000 -10.396160 -54.556337 -13.120176 14.747811 64.360359 -12.857895 -7.369440 -15.976673 21.153308 2.085580 -0.330558 9.980193 27.341174 60.736408 6.914317 1.376752 -66.835223 -12.275536 2.943679 6.954398 27.624228 -0.703949 1.620116 7.665960 -8.396521 6.775363 -19.513531 11.562523 -6.725035 37.364729 2.358800 -1.742635 -4.720347 -0.448245 3.985211 -10.882857 0.365493 4.547604 -35.292639 12.612119 53.022554 9.214244 7.957005 37.252548 11.664824 -14.421399 -70.032116 -14.671937 -8.500016 -26.026125 -32.321044 -2.351614 -54.963360 -11.188852 10.933053 -36.565037 4.422532 -3.114458 70.625096 7.223329 0.830780 38.258444 -37.368760 7.602085
0.000553 0.940899 0.102533 -0.000000 0.000000 -10.649195 -54.435201 -13.429283 15.137552 64.519482 -12.751931 -7.558492 -16.217264 20.865251 2.049361 -0.503966 10.224756 28.011202 60.489581 7.370119 1.957548 -66.587906 -12.060151 2.553116 6.967705 27.667552 -0.738447 1.503725 7.443884 -8.435378 6.897273 -19.640917 11.844498 -6.513378 37.800218 2.276592 -2.069575 -4.732314 -0.507938 4.195822 -11.000986 0.403099 4.521961 -35.252174 12.804698 52.886128 9.614917 8.547316 36.596365 11.177228 -14.396592 -68.683294 -14.802964 -8.086893 -28.095674 -33.972106 -2.891151 -54.858189 -11.462282 11.240105 -36.387337 3.515550 -4.287112 69.390883 7.123674 0.006214 40.397129 -39.466824 7.964198
0.005247 0.944053 0.108815 -0.000000 0.000000 -10.908777 -54.707593 -13.807315 15.436598 64.785952 -12.962913 -7.729800 -16.297068 20.873227 2.080236 -0.377975 9.880833 28.293935 60.809284 7.590264 1.990305 -66.645025 -12.554955 2.601292 6.431799 27.736790 -0.648204 1.544740 8.198791 -7.334720 6.768910 -18.998330 12.042684 -6.257474 37.481848 2.136455 -1.043997 -6.523936 -0.363882 2.740261 -9.740948 0.191437 4.811772 -35.445760 12.704218 52.415287 9.684664 8.622070 37.006272 10.414154 -13.391511 -67.804541 -14.298509 -7.221587 -30.411859 -38.377927 -3.575989 -54.600441 -11.837126 11.804731 -37.924063 3.313052 -5.055390 69.151752 7.714430 -0.329426 43.604161 -40.925870 8.843007
0.020593 0.941542 0.134561 -0.000000 0.000000 -11.174731 -54.156232 -14.042002 15.913799 64.285992 -13.228347 -7.940285 -16.613222 21.061366 2.179689 -0.274215 10.222644 28.462789 60.473906 7.977854 2.469590 -66.764706 -11.751610 2.305014 6.724548 27.934944 -0.629258 1.734461 7.050409 -8.082002 7.537817 -19.744984 12.488400 -7.559083 37.289212 2.661953 -2.576009 -3.162317 -0.532352 5.406973 -11.973328 0.586279 4.853291 -35.205690 14.343711 53.107509 10.403743 9.473976 36.524149 13.187139 -17.434217 -71.245696 -15.638596 -10.829616 -21.869519 -24.872205 -1.808794 -55.027851 -12.017253 11.673768 -34.964745 3.947379 -4.127256 71.670475 8.352380 0.250498 34.054115 -33.086729 6.247173
